<svg width="49" height="49" viewBox="0 0 49 49" fill="none" xmlns="http://www.w3.org/2000/svg">
<ellipse cx="24.7402" cy="24.9365" rx="24" ry="24" fill="#3D4048"/>
<g filter="url(#filter0_d_1661_9177)">
<path d="M32.2061 8.48657L12.383 10.8318C12.1404 10.8605 11.9603 11.0965 11.9813 11.3594L14.1315 38.2979C14.1524 38.5603 14.3665 38.7502 14.6091 38.7215L34.8718 36.3242L32.6837 8.91018C32.6627 8.6473 32.4487 8.45787 32.2061 8.48657Z" fill="white"/>
<path d="M30.5264 36.0397C28.468 36.3073 26.6564 34.7423 26.4884 32.5515C26.3203 30.3607 27.858 28.3605 29.9168 28.093C31.9756 27.8254 33.7867 29.3899 33.9547 31.5812C34.1228 33.772 32.5851 35.7722 30.5264 36.0397ZM29.9723 28.8174C28.2893 29.0361 27.0316 30.6717 27.169 32.4631C27.3064 34.2544 28.7873 35.5341 30.4708 35.3153C32.1543 35.0965 33.4115 33.461 33.2741 31.6696C33.1367 29.8778 31.6554 28.5986 29.9723 28.8174Z" fill="#D54253"/>
<path fill-rule="evenodd" clip-rule="evenodd" d="M15.4654 17.4126L30.9718 15.3743L31.8619 25.1426L16.3555 27.1809L15.4654 17.4126ZM22.5291 23.6603L18.8117 22.4222L18.726 21.4825L22.1325 19.308L22.2339 20.4206L19.8421 21.7956L22.4293 22.5658L22.5291 23.6603ZM22.9229 24.3844L23.6692 18.2831L24.4175 18.1847L23.6572 24.2879L22.9229 24.3844ZM25.2159 23.3228L25.1147 22.2128L27.4897 20.8086L24.9195 20.0702L24.8181 18.9575L28.5215 20.1975L28.6072 21.1372L25.2159 23.3228ZM15.1973 14.4697L30.7037 12.4314L30.929 14.9044L15.4226 16.9428L15.1973 14.4697ZM26.3734 14.0456L27.2219 13.934L27.3019 14.8117L26.4533 14.9233L26.3734 14.0456ZM27.758 13.8636L28.6066 13.752L28.6865 14.6297L27.838 14.7413L27.758 13.8636ZM29.145 13.6812L29.9936 13.5697L30.0735 14.4474L29.225 14.5589L29.145 13.6812Z" fill="#D54253"/>
<path d="M29.6026 32.8903L29.311 34.1904L28.8131 34.2552L29.7758 30.1173L30.3568 30.0416L31.9333 33.849L31.4188 33.916L30.9249 32.7182L29.6026 32.8903ZM30.7941 32.3304L30.3413 31.2346C30.2384 30.9861 30.165 30.7576 30.0921 30.5347L30.0813 30.5362C30.044 30.779 30.0016 31.0286 29.9483 31.2796L29.6712 32.4766L30.7941 32.3304Z" fill="#D54253"/>
</g>
<defs>
<filter id="filter0_d_1661_9177" x="7.97949" y="8.4834" width="30.8926" height="38.2412" filterUnits="userSpaceOnUse" color-interpolation-filters="sRGB">
<feFlood flood-opacity="0" result="BackgroundImageFix"/>
<feColorMatrix in="SourceAlpha" type="matrix" values="0 0 0 0 0 0 0 0 0 0 0 0 0 0 0 0 0 0 127 0" result="hardAlpha"/>
<feOffset dy="4"/>
<feGaussianBlur stdDeviation="2"/>
<feComposite in2="hardAlpha" operator="out"/>
<feColorMatrix type="matrix" values="0 0 0 0 0 0 0 0 0 0 0 0 0 0 0 0 0 0 0.25 0"/>
<feBlend mode="normal" in2="BackgroundImageFix" result="effect1_dropShadow_1661_9177"/>
<feBlend mode="normal" in="SourceGraphic" in2="effect1_dropShadow_1661_9177" result="shape"/>
</filter>
</defs>
</svg>
