<svg width="52" height="52" viewBox="0 0 52 52" fill="none" xmlns="http://www.w3.org/2000/svg">
<ellipse cx="25.7399" cy="25.9362" rx="25.5319" ry="25.5319" fill="#3D4048"/>
<g filter="url(#filter0_d_1661_9181)">
<path d="M13.9268 24.6318V34.2132C13.9268 34.7308 14.348 35.151 14.8674 35.151H24.4838V31.7192C24.7965 31.9001 25.1586 32.0057 25.5458 32.0062C26.6803 32.0067 27.642 31.0731 27.6682 29.9421C27.6965 28.7513 26.7358 27.7771 25.5473 27.7771C25.1596 27.7771 24.7965 27.8827 24.4843 28.0636V24.6323H13.9268V24.6318Z" fill="white"/>
<path d="M24.4838 14.1123H14.8679C14.3485 14.1123 13.9268 14.5325 13.9268 15.0495V24.6315H17.3709C17.1893 24.943 17.0834 25.3032 17.0834 25.6896C17.0829 26.82 18.0199 27.7778 19.1544 27.8044C20.3496 27.8326 21.3277 26.8754 21.3277 25.6912C21.3277 25.3048 21.2218 24.9435 21.0402 24.632H24.4838V14.1123V14.1123Z" fill="white"/>
<path d="M35.0399 24.6325H31.5963C31.7779 24.3215 31.8833 23.9602 31.8833 23.5733C31.8833 22.4434 30.9473 21.4847 29.8133 21.459C28.6187 21.4314 27.64 22.3871 27.64 23.5733C27.64 23.9571 27.7459 24.321 27.927 24.6325H24.4834V21.1987C24.1707 21.3817 23.8081 21.4867 23.4204 21.4867C22.2329 21.4867 21.2702 20.5121 21.2985 19.3217C21.3267 18.1892 22.2864 17.2571 23.4224 17.2571C23.8081 17.2571 24.1707 17.3622 24.4834 17.5451V14.1113H34.0993C34.6187 14.1113 35.0399 14.5336 35.0399 15.0486V24.6325Z" fill="white"/>
<path d="M35.04 21.1994C35.3527 21.3824 35.7153 21.4874 36.101 21.4874C37.2375 21.4874 38.1972 20.5548 38.2255 19.4228C38.2538 18.2325 37.2915 17.2578 36.1041 17.2578C35.7158 17.2578 35.3537 17.3629 35.0406 17.5458V21.1994H35.04Z" fill="white"/>
<path d="M13.9263 17.5453C13.6136 17.3624 13.251 17.2568 12.8653 17.2568C11.7288 17.2568 10.7691 18.1895 10.7408 19.3219C10.7126 20.5123 11.6748 21.4869 12.8622 21.4869C13.2505 21.4869 13.6126 21.3819 13.9258 21.199V17.5453H13.9263Z" fill="white"/>
<path d="M13.9263 28.0644C13.6136 27.8814 13.251 27.7764 12.8653 27.7764C11.7288 27.7764 10.7691 28.709 10.7408 29.8409C10.7126 31.0313 11.6748 32.006 12.8622 32.006C13.2505 32.006 13.6126 31.9009 13.9258 31.718V28.0644H13.9263Z" fill="white"/>
<path d="M31.5964 14.1111C31.78 13.799 31.886 13.4383 31.886 13.054C31.886 11.9215 30.95 10.9653 29.8134 10.9371C28.6188 10.9089 27.6406 11.8677 27.6406 13.0514C27.6406 13.4378 27.7461 13.799 27.9302 14.1111H31.5964Z" fill="white"/>
<path d="M21.0388 14.1111C21.2224 13.799 21.3284 13.4383 21.3284 13.054C21.3284 11.9215 20.3924 10.9653 19.2558 10.9371C18.0612 10.9089 17.083 11.8677 17.083 13.0514C17.083 13.4378 17.1884 13.799 17.372 14.1111H21.0388Z" fill="white"/>
<path d="M17.372 35.1504C17.1884 35.4619 17.083 35.8232 17.083 36.2075C17.083 37.34 18.019 38.2957 19.155 38.3244C20.3497 38.3526 21.3278 37.3938 21.3278 36.2106C21.3278 35.8237 21.2224 35.463 21.0388 35.1509H17.372V35.1504Z" fill="white"/>
<path d="M21.2857 28.8916C21.2857 29.1601 21.0671 29.3779 20.7976 29.3779C20.5281 29.3779 20.3096 29.1601 20.3096 28.8916C20.3096 28.6231 20.5276 28.4053 20.7976 28.4053C21.0676 28.4053 21.2857 28.6231 21.2857 28.8916Z" fill="#D54253"/>
<path d="M23.0513 28.8916C23.0513 29.1601 22.8327 29.3779 22.5632 29.3779C22.2938 29.3779 22.0752 29.1601 22.0752 28.8916C22.0752 28.6231 22.2938 28.4053 22.5632 28.4053C22.8327 28.4053 23.0513 28.6231 23.0513 28.8916Z" fill="#D54253"/>
<path d="M21.2857 30.9345C21.2857 31.203 21.0671 31.4208 20.7976 31.4208C20.5281 31.4208 20.3096 31.203 20.3096 30.9345C20.3096 30.666 20.5276 30.4482 20.7976 30.4482C21.0676 30.4482 21.2857 30.666 21.2857 30.9345Z" fill="#D54253"/>
<path d="M23.0513 30.9345C23.0513 31.203 22.8327 31.4208 22.5632 31.4208C22.2938 31.4208 22.0752 31.203 22.0752 30.9345C22.0752 30.666 22.2938 30.4482 22.5632 30.4482C22.8327 30.4488 23.0513 30.666 23.0513 30.9345Z" fill="#D54253"/>
<path d="M21.2857 32.9785C21.2857 33.247 21.0671 33.4648 20.7976 33.4648C20.5281 33.4648 20.3096 33.247 20.3096 32.9785C20.3096 32.71 20.5276 32.4922 20.7976 32.4922C21.0676 32.4922 21.2857 32.71 21.2857 32.9785Z" fill="#D54253"/>
<path d="M23.0513 32.9785C23.0513 33.247 22.8327 33.4648 22.5632 33.4648C22.2938 33.4648 22.0752 33.247 22.0752 32.9785C22.0752 32.71 22.2938 32.4922 22.5632 32.4922C22.8327 32.4922 23.0513 32.71 23.0513 32.9785Z" fill="#D54253"/>
<path d="M22.1687 15.4365C21.8992 15.4365 21.6807 15.2187 21.6807 14.9502C21.6807 14.6816 21.8992 14.4639 22.1687 14.4639C22.4382 14.4639 22.6568 14.6816 22.6568 14.9502C22.6568 15.2192 22.4382 15.4365 22.1687 15.4365Z" fill="#D54253"/>
<path d="M22.1687 17.1962C21.8992 17.1962 21.6807 16.9784 21.6807 16.7099C21.6807 16.4414 21.8992 16.2236 22.1687 16.2236C22.4382 16.2236 22.6568 16.4414 22.6568 16.7099C22.6568 16.979 22.4382 17.1962 22.1687 17.1962Z" fill="#D54253"/>
<path d="M20.1179 15.4365C19.8485 15.4365 19.6299 15.2187 19.6299 14.9502C19.6299 14.6816 19.8485 14.4639 20.1179 14.4639C20.3874 14.4639 20.606 14.6816 20.606 14.9502C20.606 15.2192 20.3874 15.4365 20.1179 15.4365Z" fill="#D54253"/>
<path d="M20.1179 17.1962C19.8485 17.1962 19.6299 16.9784 19.6299 16.7099C19.6299 16.4414 19.8485 16.2236 20.1179 16.2236C20.3874 16.2236 20.606 16.4414 20.606 16.7099C20.606 16.979 20.3874 17.1962 20.1179 17.1962Z" fill="#D54253"/>
<path d="M18.0671 15.4365C17.7977 15.4365 17.5791 15.2187 17.5791 14.9502C17.5791 14.6816 17.7977 14.4639 18.0671 14.4639C18.3366 14.4639 18.5552 14.6816 18.5552 14.9502C18.5552 15.2192 18.3366 15.4365 18.0671 15.4365Z" fill="#D54253"/>
<path d="M18.0671 17.1962C17.7977 17.1962 17.5791 16.9784 17.5791 16.7099C17.5791 16.4414 17.7977 16.2236 18.0671 16.2236C18.3366 16.2236 18.5552 16.4414 18.5552 16.7099C18.5552 16.979 18.3366 17.1962 18.0671 17.1962Z" fill="#D54253"/>
<path d="M26.4028 16.3164C26.4028 16.5849 26.1843 16.8027 25.9148 16.8027C25.6453 16.8027 25.4268 16.5849 25.4268 16.3164C25.4268 16.0479 25.6453 15.8301 25.9148 15.8301C26.1843 15.8301 26.4028 16.0479 26.4028 16.3164Z" fill="#D54253"/>
<path d="M28.1685 16.3164C28.1685 16.5849 27.9499 16.8027 27.6804 16.8027C27.411 16.8027 27.1924 16.5849 27.1924 16.3164C27.1924 16.0479 27.411 15.8301 27.6804 15.8301C27.9499 15.8301 28.1685 16.0479 28.1685 16.3164Z" fill="#D54253"/>
<path d="M26.4028 18.3603C26.4028 18.6288 26.1843 18.8466 25.9148 18.8466C25.6453 18.8466 25.4268 18.6288 25.4268 18.3603C25.4268 18.0918 25.6453 17.874 25.9148 17.874C26.1843 17.874 26.4028 18.0913 26.4028 18.3603Z" fill="#D54253"/>
<path d="M28.1685 18.3603C28.1685 18.6288 27.9499 18.8466 27.6804 18.8466C27.411 18.8466 27.1924 18.6288 27.1924 18.3603C27.1924 18.0918 27.411 17.874 27.6804 17.874C27.9499 17.874 28.1685 18.0913 28.1685 18.3603Z" fill="#D54253"/>
<path d="M26.4028 20.4033C26.4028 20.6718 26.1843 20.8896 25.9148 20.8896C25.6453 20.8896 25.4268 20.6718 25.4268 20.4033C25.4268 20.1348 25.6453 19.917 25.9148 19.917C26.1843 19.917 26.4028 20.1348 26.4028 20.4033Z" fill="#D54253"/>
<path d="M28.1685 20.4033C28.1685 20.6718 27.9499 20.8896 27.6804 20.8896C27.411 20.8896 27.1924 20.6718 27.1924 20.4033C27.1924 20.1348 27.411 19.917 27.6804 19.917C27.9499 19.917 28.1685 20.1348 28.1685 20.4033Z" fill="#D54253"/>
<path d="M19.5554 30.6023C19.5554 32.0361 18.389 33.1983 16.95 33.1983C15.5116 33.1983 14.3447 32.0361 14.3447 30.6023C14.3447 29.1685 15.5111 28.0068 16.95 28.0068C18.389 28.0063 19.5554 29.1685 19.5554 30.6023Z" fill="#D54253"/>
<path d="M17.8576 30.4557C18.0957 30.2753 18.2345 30.0135 18.2345 29.7219C18.2345 29.4139 18.1147 29.1623 17.8884 28.9932C17.6457 28.7985 17.3258 28.7119 16.8517 28.7119C16.5523 28.7119 16.2309 28.7406 16.0129 28.7862L15.8838 28.8134V32.4321L16.0242 32.4516C16.1378 32.4675 16.3811 32.4936 16.7303 32.4936C17.3407 32.4936 17.7506 32.3794 18.0237 32.1298C18.2479 31.9131 18.3616 31.6445 18.3616 31.332C18.3616 30.9041 18.1301 30.6176 17.8576 30.4557ZM16.8866 30.1759H16.649V29.3832C16.7138 29.3776 16.7899 29.3745 16.8763 29.3745C17.4636 29.3745 17.4636 29.6604 17.4636 29.768C17.4642 30.0191 17.243 30.1759 16.8866 30.1759ZM17.5701 31.3268C17.5701 31.7393 17.1818 31.8259 16.8563 31.8259C16.775 31.8259 16.7061 31.8244 16.649 31.8213V30.8323H16.8511C17.1196 30.8329 17.5701 30.8969 17.5701 31.3268Z" fill="white"/>
<path d="M19.8146 20.699C19.8146 22.1327 18.6482 23.2949 17.2098 23.2949C15.7709 23.2949 14.6045 22.1327 14.6045 20.699C14.6045 19.2652 15.7709 18.1035 17.2098 18.1035C18.6482 18.1035 19.8146 19.2652 19.8146 20.699Z" fill="#D54253"/>
<path d="M34.2248 17.5457C34.2248 18.9794 33.0584 20.1411 31.62 20.1411C30.181 20.1411 29.0146 18.9789 29.0146 17.5457C29.0146 16.1119 30.181 14.9502 31.62 14.9502C33.0579 14.9497 34.2248 16.1119 34.2248 17.5457Z" fill="#D54253"/>
<path d="M17.5897 18.665H16.8249L15.5547 22.3909H16.3549L16.7092 21.321H17.6858L18.0505 22.3909H18.8656L17.5897 18.665ZM17.1957 19.8062C17.2045 19.8334 17.4843 20.6538 17.4843 20.6538H16.9098C16.9098 20.6538 17.188 19.8313 17.1957 19.8062Z" fill="white"/>
<path d="M32.4746 18.644C32.3178 18.7198 32.0632 18.769 31.8261 18.769C31.1066 18.769 30.6767 18.3181 30.6767 17.5633C30.6767 16.7859 31.1138 16.3222 31.8462 16.3222C32.1583 16.3222 32.3676 16.4006 32.4643 16.4472L32.6366 16.5302L32.8356 15.861L32.7168 15.7995C32.6186 15.7483 32.3358 15.6299 31.8312 15.6299C30.6854 15.6299 29.8857 16.4313 29.8857 17.5787C29.8857 18.7224 30.6119 19.4618 31.7351 19.4618C32.1892 19.4618 32.5363 19.3696 32.7091 19.283L32.8269 19.2246L32.6525 18.5584L32.4746 18.644Z" fill="white"/>
<path d="M40.5127 35.2502C40.7621 35.513 41.081 35.7144 41.4507 35.8215C42.542 36.1372 43.7243 35.5084 44.0684 34.4287C44.4284 33.2932 43.7773 32.09 42.6367 31.76C42.2643 31.6524 41.8868 31.6524 41.5351 31.741L40.5127 35.2502Z" fill="white"/>
<path d="M36.1622 37.5656C36.2512 37.9161 36.2522 38.2922 36.1442 38.6612C35.8274 39.7485 34.6611 40.407 33.562 40.118C32.4065 39.8131 31.7358 38.6207 32.067 37.4841C32.175 37.1131 32.3777 36.7954 32.641 36.5469L36.1622 37.5656Z" fill="white"/>
<path d="M35.5843 26.4455C35.4954 26.095 35.4949 25.7189 35.6023 25.3499C35.9191 24.2626 37.0855 23.6046 38.1845 23.8931C39.3396 24.198 40.0107 25.3904 39.6795 26.527C39.5715 26.8985 39.3689 27.2157 39.1056 27.4642L35.5843 26.4455Z" fill="white"/>
<path d="M32.3582 25.5127L31.3981 28.8086C31.7493 28.721 32.1263 28.7215 32.4981 28.8281C33.5884 29.1427 34.2503 30.3065 33.9592 31.4C33.6532 32.5514 32.4575 33.2196 31.3163 32.8896C30.944 32.782 30.6246 32.5796 30.3752 32.3193L29.415 35.6142L38.6494 38.2855C39.1487 38.43 39.6702 38.1436 39.8152 37.6465L42.4962 28.4453L32.3582 25.5127Z" fill="white"/>
<path d="M38.505 34.9696C38.1039 36.3465 36.6588 37.1382 35.2769 36.7385C33.8951 36.3388 33.1 34.8988 33.5016 33.5219C33.9028 32.1451 35.3479 31.3533 36.7298 31.753C38.1116 32.1527 38.9062 33.5932 38.505 34.9696Z" fill="#D54253"/>
<path d="M39.9437 29.7914C39.685 29.7166 39.5359 29.4471 39.6115 29.1888C39.6865 28.931 39.957 28.7824 40.2162 28.8573C40.4749 28.9321 40.6241 29.2021 40.549 29.4599C40.4734 29.7181 40.2024 29.8662 39.9437 29.7914Z" fill="#D54253"/>
<path d="M39.4513 31.4819C39.1926 31.407 39.044 31.1375 39.1191 30.8792C39.1942 30.6215 39.4647 30.4729 39.7239 30.5477C39.9826 30.6225 40.1317 30.8926 40.0561 31.1503C39.981 31.4086 39.7105 31.5567 39.4513 31.4819Z" fill="#D54253"/>
<path d="M37.9749 29.2228C37.7162 29.148 37.5671 28.8779 37.6427 28.6202C37.7178 28.3624 37.9883 28.2138 38.2475 28.2891C38.5062 28.3639 38.6548 28.6335 38.5802 28.8917C38.5041 29.149 38.2336 29.2976 37.9749 29.2228Z" fill="#D54253"/>
<path d="M37.4827 30.9122C37.2241 30.8374 37.0749 30.5679 37.1505 30.3096C37.2256 30.0519 37.4966 29.9032 37.7553 29.9786C38.0145 30.0534 38.1631 30.3229 38.088 30.5812C38.0124 30.8389 37.7419 30.987 37.4827 30.9122Z" fill="#D54253"/>
<path d="M36.0053 28.6525C35.7466 28.5776 35.598 28.3081 35.6726 28.0498C35.7477 27.7921 36.0182 27.6435 36.2774 27.7188C36.5366 27.7936 36.6852 28.0637 36.6101 28.3214C36.535 28.5787 36.2645 28.7273 36.0053 28.6525Z" fill="#D54253"/>
<path d="M35.5133 30.3419C35.2546 30.2671 35.1055 29.9976 35.1806 29.7393C35.2557 29.4815 35.5267 29.3329 35.7854 29.4083C36.0446 29.4831 36.1932 29.7531 36.1181 30.0109C36.043 30.2686 35.772 30.4172 35.5133 30.3419Z" fill="#D54253"/>
<path d="M35.3269 32.2961L34.3857 35.5254L34.394 35.528L34.4907 35.6172C34.6326 35.7483 34.9401 35.9333 35.3762 36.0594C36.4552 36.3715 37.3593 35.8631 37.6792 34.7645C38.0001 33.6627 37.456 32.6707 36.3559 32.3525C35.8715 32.2126 35.5665 32.2479 35.458 32.2695L35.3269 32.2961ZM35.4822 35.3691C35.405 35.3466 35.3274 35.3179 35.2528 35.2856L35.9291 32.9658C35.9959 32.9761 36.069 32.9915 36.1471 33.014C36.8507 33.2174 37.1407 33.7842 36.9232 34.5308C36.7123 35.2554 36.1734 35.569 35.4822 35.3691Z" fill="white"/>
</g>
<defs>
<filter id="filter0_d_1661_9181" x="6.74023" y="10.9365" width="41.4277" height="37.25" filterUnits="userSpaceOnUse" color-interpolation-filters="sRGB">
<feFlood flood-opacity="0" result="BackgroundImageFix"/>
<feColorMatrix in="SourceAlpha" type="matrix" values="0 0 0 0 0 0 0 0 0 0 0 0 0 0 0 0 0 0 127 0" result="hardAlpha"/>
<feOffset dy="4"/>
<feGaussianBlur stdDeviation="2"/>
<feComposite in2="hardAlpha" operator="out"/>
<feColorMatrix type="matrix" values="0 0 0 0 0 0 0 0 0 0 0 0 0 0 0 0 0 0 0.25 0"/>
<feBlend mode="normal" in2="BackgroundImageFix" result="effect1_dropShadow_1661_9181"/>
<feBlend mode="normal" in="SourceGraphic" in2="effect1_dropShadow_1661_9181" result="shape"/>
</filter>
</defs>
</svg>
